<svg width="160" height="151" viewBox="0 0 160 151" fill="none" xmlns="http://www.w3.org/2000/svg">
<path d="M81.6421 133.413C113.257 133.413 138.887 107.783 138.887 76.1681C138.887 44.5528 113.257 18.9236 81.6421 18.9236C50.0268 18.9236 24.3976 44.5528 24.3976 76.1681C24.3976 107.783 50.0268 133.413 81.6421 133.413Z" fill="#9DC16E" stroke="#FFCC00" stroke-width="5"/>
<path d="M56.4594 81.9525C75.9808 81.9525 91.806 66.1273 91.806 46.6058C91.806 27.0844 75.9808 11.2592 56.4594 11.2592C36.9379 11.2592 21.1127 27.0844 21.1127 46.6058C21.1127 66.1273 36.9379 81.9525 56.4594 81.9525Z" fill="#9DC16E" stroke="#FFCC00" stroke-width="5"/>
<path d="M85.7111 46.6058C85.7111 62.7612 72.6147 75.8576 56.4594 75.8576C40.304 75.8576 27.2076 62.7612 27.2076 46.6058C27.2076 30.4505 40.304 17.354 56.4594 17.354C72.6147 17.354 85.7111 30.4505 85.7111 46.6058ZM56.4594 81.9525C75.9808 81.9525 91.806 66.1273 91.806 46.6058C91.806 27.0844 75.9808 11.2592 56.4594 11.2592C36.9379 11.2592 21.1127 27.0844 21.1127 46.6058C21.1127 66.1273 36.9379 81.9525 56.4594 81.9525Z" fill="#E0E0E0" stroke="#FFCC00" stroke-width="5"/>
<path d="M64.1241 147.646C83.6456 147.646 99.4708 131.821 99.4708 112.299C99.4708 92.7776 83.6456 76.9524 64.1241 76.9524C44.6027 76.9524 28.7775 92.7776 28.7775 112.299C28.7775 131.821 44.6027 147.646 64.1241 147.646Z" fill="#9DC16E" stroke="#FFCC00" stroke-width="5"/>
<path d="M93.3759 112.299C93.3759 128.454 80.2795 141.551 64.1241 141.551C47.9688 141.551 34.8724 128.454 34.8724 112.299C34.8724 96.1438 47.9688 83.0473 64.1241 83.0473C80.2795 83.0473 93.3759 96.1438 93.3759 112.299ZM64.1241 147.646C83.6456 147.646 99.4708 131.821 99.4708 112.299C99.4708 92.7776 83.6456 76.9524 64.1241 76.9524C44.6027 76.9524 28.7775 92.7776 28.7775 112.299C28.7775 131.821 44.6027 147.646 64.1241 147.646Z" fill="#E0E0E0" stroke="#FFCC00" stroke-width="5"/>
<path d="M122.153 106.04C141.675 106.04 157.5 90.2148 157.5 70.6934C157.5 51.1719 141.675 35.3467 122.153 35.3467C102.632 35.3467 86.8066 51.1719 86.8066 70.6934C86.8066 90.2148 102.632 106.04 122.153 106.04Z" fill="#9DC16E" stroke="#FFCC00" stroke-width="5"/>
<path d="M151.405 70.6934C151.405 86.8487 138.309 99.9452 122.153 99.9452C105.998 99.9452 92.9015 86.8487 92.9015 70.6934C92.9015 54.538 105.998 41.4416 122.153 41.4416C138.309 41.4416 151.405 54.538 151.405 70.6934ZM122.153 106.04C141.675 106.04 157.5 90.2148 157.5 70.6934C157.5 51.1719 141.675 35.3467 122.153 35.3467C102.632 35.3467 86.8066 51.1719 86.8066 70.6934C86.8066 90.2148 102.632 106.04 122.153 106.04Z" fill="#E0E0E0" stroke="#FFCC00" stroke-width="5"/>
<path d="M37.8467 114.799C57.3681 114.799 73.1934 98.9742 73.1934 79.4528C73.1934 59.9313 57.3681 44.1061 37.8467 44.1061C18.3252 44.1061 2.5 59.9313 2.5 79.4528C2.5 98.9742 18.3252 114.799 37.8467 114.799Z" fill="#9DC16E" stroke="#FFCC00" stroke-width="5"/>
<path d="M67.0985 79.4528C67.0985 95.6081 54.002 108.705 37.8467 108.705C21.6914 108.705 8.59489 95.6081 8.59489 79.4528C8.59489 63.2974 21.6914 50.201 37.8467 50.201C54.002 50.201 67.0985 63.2974 67.0985 79.4528ZM37.8467 114.799C57.3681 114.799 73.1934 98.9742 73.1934 79.4528C73.1934 59.9313 57.3681 44.1061 37.8467 44.1061C18.3252 44.1061 2.5 59.9313 2.5 79.4528C2.5 98.9742 18.3252 114.799 37.8467 114.799Z" fill="#E0E0E0" stroke="#FFCC00" stroke-width="5"/>
<path d="M103.54 144.361C123.061 144.361 138.887 128.536 138.887 109.015C138.887 89.4931 123.061 73.6678 103.54 73.6678C84.0185 73.6678 68.1932 89.4931 68.1932 109.015C68.1932 128.536 84.0185 144.361 103.54 144.361Z" fill="#9DC16E" stroke="#FFCC00" stroke-width="5"/>
<path d="M132.792 109.015C132.792 125.17 119.695 138.266 103.54 138.266C87.3846 138.266 74.2881 125.17 74.2881 109.015C74.2881 92.8592 87.3846 79.7627 103.54 79.7627C119.695 79.7627 132.792 92.8592 132.792 109.015ZM103.54 144.361C123.061 144.361 138.887 128.536 138.887 109.015C138.887 89.4931 123.061 73.6678 103.54 73.6678C84.0185 73.6678 68.1932 89.4931 68.1932 109.015C68.1932 128.536 84.0185 144.361 103.54 144.361Z" fill="#E0E0E0" stroke="#FFCC00" stroke-width="5"/>
<path d="M89.3066 73.1934C108.828 73.1934 124.653 57.3681 124.653 37.8467C124.653 18.3253 108.828 2.5 89.3066 2.5C69.7852 2.5 53.96 18.3253 53.96 37.8467C53.96 57.3681 69.7852 73.1934 89.3066 73.1934Z" fill="#9DC16E" stroke="#FFCC00" stroke-width="5"/>
<path d="M118.558 37.8467C118.558 54.002 105.462 67.0985 89.3066 67.0985C73.1513 67.0985 60.0549 54.002 60.0549 37.8467C60.0549 21.6914 73.1513 8.59489 89.3066 8.59489C105.462 8.59489 118.558 21.6914 118.558 37.8467ZM89.3066 73.1934C108.828 73.1934 124.653 57.3681 124.653 37.8467C124.653 18.3253 108.828 2.5 89.3066 2.5C69.7852 2.5 53.96 18.3253 53.96 37.8467C53.96 57.3681 69.7852 73.1934 89.3066 73.1934Z" fill="#E0E0E0" stroke="#FFCC00" stroke-width="5"/>
<path d="M81.6423 111.515C101.164 111.515 116.989 95.6895 116.989 76.1681C116.989 56.6467 101.164 40.8214 81.6423 40.8214C62.1209 40.8214 46.2957 56.6467 46.2957 76.1681C46.2957 95.6895 62.1209 111.515 81.6423 111.515Z" fill="#FFCC00" stroke="#FFCC00" stroke-width="5"/>
<path d="M110.894 76.1681C110.894 92.3234 97.7977 105.42 81.6423 105.42C65.487 105.42 52.3905 92.3234 52.3905 76.1681C52.3905 60.0128 65.487 46.9163 81.6423 46.9163C97.7977 46.9163 110.894 60.0128 110.894 76.1681ZM81.6423 111.515C101.164 111.515 116.989 95.6895 116.989 76.1681C116.989 56.6467 101.164 40.8214 81.6423 40.8214C62.1209 40.8214 46.2957 56.6467 46.2957 76.1681C46.2957 95.6895 62.1209 111.515 81.6423 111.515Z" fill="#E0E0E0" stroke="#FFCC00" stroke-width="5"/>
<path d="M133.887 76.1681C133.887 105.022 110.496 128.413 81.6421 128.413C52.7882 128.413 29.3976 105.022 29.3976 76.1681C29.3976 47.3142 52.7882 23.9236 81.6421 23.9236C110.496 23.9236 133.887 47.3142 133.887 76.1681Z" fill="#9DC16E" stroke="#517F53" stroke-width="5"/>
<path d="M86.806 46.6058C86.806 63.3659 73.2194 76.9525 56.4594 76.9525C39.6993 76.9525 26.1127 63.3659 26.1127 46.6058C26.1127 29.8458 39.6993 16.2592 56.4594 16.2592C73.2194 16.2592 86.806 29.8458 86.806 46.6058Z" fill="#9DC16E" stroke="#517F53" stroke-width="5"/>
<path d="M94.4708 112.299C94.4708 129.059 80.8842 142.646 64.1241 142.646C47.3641 142.646 33.7775 129.059 33.7775 112.299C33.7775 95.5391 47.3641 81.9524 64.1241 81.9524C80.8842 81.9524 94.4708 95.5391 94.4708 112.299Z" fill="#9DC16E" stroke="#517F53" stroke-width="5"/>
<path d="M152.5 70.6934C152.5 87.4534 138.913 101.04 122.153 101.04C105.393 101.04 91.8066 87.4534 91.8066 70.6934C91.8066 53.9334 105.393 40.3467 122.153 40.3467C138.913 40.3467 152.5 53.9334 152.5 70.6934Z" fill="#9DC16E" stroke="#517F53" stroke-width="5"/>
<path d="M68.1934 79.4528C68.1934 96.2128 54.6067 109.799 37.8467 109.799C21.0867 109.799 7.5 96.2128 7.5 79.4528C7.5 62.6928 21.0867 49.1061 37.8467 49.1061C54.6067 49.1061 68.1934 62.6928 68.1934 79.4528Z" fill="#9DC16E" stroke="#517F53" stroke-width="5"/>
<path d="M133.887 109.015C133.887 125.775 120.3 139.361 103.54 139.361C86.7799 139.361 73.1932 125.775 73.1932 109.015C73.1932 92.2545 86.7799 78.6678 103.54 78.6678C120.3 78.6678 133.887 92.2545 133.887 109.015Z" fill="#9DC16E" stroke="#517F53" stroke-width="5"/>
<path d="M119.653 37.8467C119.653 54.6067 106.067 68.1934 89.3066 68.1934C72.5466 68.1934 58.96 54.6067 58.96 37.8467C58.96 21.0867 72.5466 7.5 89.3066 7.5C106.067 7.5 119.653 21.0867 119.653 37.8467Z" fill="#9DC16E" stroke="#517F53" stroke-width="5"/>
<path d="M111.989 76.1681C111.989 92.9281 98.4024 106.515 81.6423 106.515C64.8823 106.515 51.2957 92.9281 51.2957 76.1681C51.2957 59.4081 64.8823 45.8214 81.6423 45.8214C98.4024 45.8214 111.989 59.4081 111.989 76.1681Z" fill="#FFCC00" stroke="#517F53" stroke-width="5"/>
</svg>
