<svg width="37" height="35" viewBox="0 0 37 35" fill="none" xmlns="http://www.w3.org/2000/svg">
<path d="M18.8832 31.0292C26.2141 31.0292 32.1569 25.0863 32.1569 17.7555C32.1569 10.4246 26.2141 4.48173 18.8832 4.48173C11.5523 4.48173 5.6095 10.4246 5.6095 17.7555C5.6095 25.0863 11.5523 31.0292 18.8832 31.0292Z" fill="#9DC16E" stroke="#FFCC00"/>
<path d="M13.0073 19.0219C17.5162 19.0219 21.1715 15.3666 21.1715 10.8576C21.1715 6.34866 17.5162 2.69341 13.0073 2.69341C8.49827 2.69341 4.84302 6.34866 4.84302 10.8576C4.84302 15.3666 8.49827 19.0219 13.0073 19.0219Z" fill="#9DC16E" stroke="#FFCC00"/>
<path d="M19.916 10.8576C19.916 14.6732 16.8229 17.7664 13.0073 17.7664C9.19165 17.7664 6.09849 14.6732 6.09849 10.8576C6.09849 7.04204 9.19165 3.94888 13.0073 3.94888C16.8229 3.94888 19.916 7.04204 19.916 10.8576ZM13.0073 19.0219C17.5162 19.0219 21.1715 15.3666 21.1715 10.8576C21.1715 6.34866 17.5162 2.69341 13.0073 2.69341C8.49827 2.69341 4.84302 6.34866 4.84302 10.8576C4.84302 15.3666 8.49827 19.0219 13.0073 19.0219Z" fill="#E0E0E0" stroke="#FFCC00"/>
<path d="M14.7956 34.3503C19.3046 34.3503 22.9598 30.6951 22.9598 26.1861C22.9598 21.6771 19.3046 18.0219 14.7956 18.0219C10.2866 18.0219 6.63135 21.6771 6.63135 26.1861C6.63135 30.6951 10.2866 34.3503 14.7956 34.3503Z" fill="#9DC16E" stroke="#FFCC00"/>
<path d="M21.7043 26.1861C21.7043 30.0017 18.6112 33.0949 14.7956 33.0949C10.98 33.0949 7.88682 30.0017 7.88682 26.1861C7.88682 22.3705 10.98 19.2773 14.7956 19.2773C18.6112 19.2773 21.7043 22.3705 21.7043 26.1861ZM14.7956 34.3503C19.3046 34.3503 22.9598 30.6951 22.9598 26.1861C22.9598 21.6771 19.3046 18.0219 14.7956 18.0219C10.2866 18.0219 6.63135 21.6771 6.63135 26.1861C6.63135 30.6951 10.2866 34.3503 14.7956 34.3503Z" fill="#E0E0E0" stroke="#FFCC00"/>
<path d="M28.3357 24.6423C32.8447 24.6423 36.5 20.9871 36.5 16.4781C36.5 11.9691 32.8447 8.31384 28.3357 8.31384C23.8268 8.31384 20.1715 11.9691 20.1715 16.4781C20.1715 20.9871 23.8268 24.6423 28.3357 24.6423Z" fill="#9DC16E" stroke="#FFCC00"/>
<path d="M35.2445 16.4781C35.2445 20.2937 32.1513 23.3868 28.3357 23.3868C24.5201 23.3868 21.427 20.2937 21.427 16.4781C21.427 12.6625 24.5201 9.56932 28.3357 9.56932C32.1513 9.56932 35.2445 12.6625 35.2445 16.4781ZM28.3357 24.6423C32.8447 24.6423 36.5 20.9871 36.5 16.4781C36.5 11.9691 32.8447 8.31384 28.3357 8.31384C23.8268 8.31384 20.1715 11.9691 20.1715 16.4781C20.1715 20.9871 23.8268 24.6423 28.3357 24.6423Z" fill="#E0E0E0" stroke="#FFCC00"/>
<path d="M8.66423 26.6861C13.1732 26.6861 16.8285 23.0309 16.8285 18.5219C16.8285 14.0129 13.1732 10.3576 8.66423 10.3576C4.15525 10.3576 0.5 14.0129 0.5 18.5219C0.5 23.0309 4.15525 26.6861 8.66423 26.6861Z" fill="#9DC16E" stroke="#FFCC00"/>
<path d="M15.573 18.5219C15.573 22.3375 12.4798 25.4306 8.66423 25.4306C4.84863 25.4306 1.75547 22.3375 1.75547 18.5219C1.75547 14.7063 4.84863 11.6131 8.66423 11.6131C12.4798 11.6131 15.573 14.7063 15.573 18.5219ZM8.66423 26.6861C13.1732 26.6861 16.8285 23.0309 16.8285 18.5219C16.8285 14.0129 13.1732 10.3576 8.66423 10.3576C4.15525 10.3576 0.5 14.0129 0.5 18.5219C0.5 23.0309 4.15525 26.6861 8.66423 26.6861Z" fill="#E0E0E0" stroke="#FFCC00"/>
<path d="M23.9927 33.5839C28.5017 33.5839 32.157 29.9287 32.157 25.4197C32.157 20.9107 28.5017 17.2554 23.9927 17.2554C19.4837 17.2554 15.8285 20.9107 15.8285 25.4197C15.8285 29.9287 19.4837 33.5839 23.9927 33.5839Z" fill="#9DC16E" stroke="#FFCC00"/>
<path d="M30.9015 25.4197C30.9015 29.2353 27.8083 32.3284 23.9927 32.3284C20.1771 32.3284 17.084 29.2353 17.084 25.4197C17.084 21.6041 20.1771 18.5109 23.9927 18.5109C27.8083 18.5109 30.9015 21.6041 30.9015 25.4197ZM23.9927 33.5839C28.5017 33.5839 32.157 29.9287 32.157 25.4197C32.157 20.9107 28.5017 17.2554 23.9927 17.2554C19.4837 17.2554 15.8285 20.9107 15.8285 25.4197C15.8285 29.9287 19.4837 33.5839 23.9927 33.5839Z" fill="#E0E0E0" stroke="#FFCC00"/>
<path d="M20.6716 16.9781C25.1805 16.9781 28.8358 13.3228 28.8358 8.81385C28.8358 4.30486 25.1805 0.649612 20.6716 0.649612C16.1626 0.649612 12.5073 4.30486 12.5073 8.81385C12.5073 13.3228 16.1626 16.9781 20.6716 16.9781Z" fill="#9DC16E" stroke="#FFCC00"/>
<path d="M27.5803 8.81385C27.5803 12.6294 24.4872 15.7226 20.6716 15.7226C16.856 15.7226 13.7628 12.6294 13.7628 8.81385C13.7628 4.99824 16.856 1.90509 20.6716 1.90509C24.4872 1.90509 27.5803 4.99824 27.5803 8.81385ZM20.6716 16.9781C25.1805 16.9781 28.8358 13.3228 28.8358 8.81385C28.8358 4.30486 25.1805 0.649612 20.6716 0.649612C16.1626 0.649612 12.5073 4.30486 12.5073 8.81385C12.5073 13.3228 16.1626 16.9781 20.6716 16.9781Z" fill="#E0E0E0" stroke="#FFCC00"/>
<path d="M18.8832 25.9197C23.3922 25.9197 27.0475 22.2644 27.0475 17.7555C27.0475 13.2465 23.3922 9.59122 18.8832 9.59122C14.3742 9.59122 10.719 13.2465 10.719 17.7555C10.719 22.2644 14.3742 25.9197 18.8832 25.9197Z" fill="#FFCC00" stroke="#FFCC00"/>
<path d="M25.792 17.7555C25.792 21.5711 22.6988 24.6642 18.8832 24.6642C15.0676 24.6642 11.9745 21.5711 11.9745 17.7555C11.9745 13.9398 15.0676 10.8467 18.8832 10.8467C22.6988 10.8467 25.792 13.9398 25.792 17.7555ZM18.8832 25.9197C23.3922 25.9197 27.0475 22.2644 27.0475 17.7555C27.0475 13.2465 23.3922 9.59122 18.8832 9.59122C14.3742 9.59122 10.719 13.2465 10.719 17.7555C10.719 22.2644 14.3742 25.9197 18.8832 25.9197Z" fill="#E0E0E0" stroke="#FFCC00"/>
<circle cx="18.8832" cy="17.7555" r="12.7737" fill="#9DC16E"/>
<circle cx="13.0073" cy="10.8576" r="7.16423" fill="#9DC16E" stroke="#E0E0E0"/>
<circle cx="14.7956" cy="26.1861" r="7.16423" fill="#9DC16E" stroke="#E0E0E0"/>
<circle cx="28.3357" cy="16.4781" r="7.16423" fill="#9DC16E" stroke="#E0E0E0"/>
<circle cx="8.66423" cy="18.5219" r="7.16423" fill="#9DC16E" stroke="#E0E0E0"/>
<circle cx="23.9927" cy="25.4197" r="7.16423" fill="#9DC16E" stroke="#E0E0E0"/>
<circle cx="20.6716" cy="8.81385" r="7.16423" fill="#9DC16E" stroke="#E0E0E0"/>
<circle cx="18.8832" cy="17.7555" r="7.16423" fill="#FFCC00" stroke="#E0E0E0"/>
</svg>
